ffmpeg started on 2016-12-09 at 22:33:22
Report written to "Output/x264/results/ffmpeg/crowd_run_2160p50placebo11000k.log"
Command line:
Tools/ffmpeg/ffmpeg -benchmark -y -i Input/y4m/crowd_run_2160p50.y4m -c:v libx264 -preset placebo -b:v 11000k -an Output/x264/encoded/crowd_run_2160p50placebo11000k.mkv
ffmpeg version N-82227-gdb23fde Copyright (c) 2000-2016 the FFmpeg developers
  built with gcc 5.4.0 (Ubuntu 5.4.0-6ubuntu1~16.04.2) 20160609
  configuration: --prefix=/home/jaroslav/ffmpeg_build --pkg-config-flags=--static --extra-cflags=-I/home/jaroslav/ffmpeg_build/include --extra-ldflags=-L/home/jaroslav/ffmpeg_build/lib --bindir=/home/jaroslav/bin --enable-gpl --enable-libass --enable-libfdk-aac --enable-libfreetype --enable-libmp3lame --enable-libopus --enable-libtheora --enable-libvorbis --enable-libvpx --enable-libx264 --enable-libx265 --enable-nvenc --enable-libmfx --enable-libxvid --enable-libgsm --enable-libopencore-amrnb --enable-version3 --enable-nonfree
  libavutil      55. 35.100 / 55. 35.100
  libavcodec     57. 66.101 / 57. 66.101
  libavformat    57. 57.100 / 57. 57.100
  libavdevice    57.  2.100 / 57.  2.100
  libavfilter     6. 66.100 /  6. 66.100
  libswscale      4.  3.100 /  4.  3.100
  libswresample   2.  4.100 /  2.  4.100
  libpostproc    54.  2.100 / 54.  2.100
Input #0, yuv4mpegpipe, from 'Input/y4m/crowd_run_2160p50.y4m':
  Duration: 00:00:10.00, start: 0.000000, bitrate: 4976642 kb/s
    Stream #0:0: Video: rawvideo (I420 / 0x30323449), yuv420p(progressive), 3840x2160, SAR 1:1 DAR 16:9, 50 fps, 50 tbr, 50 tbn, 50 tbc
[libx264 @ 0x2ca61c0] using SAR=1/1
[libx264 @ 0x2ca61c0] DPB size (16 frames, 518400 mbs) > level limit (5 frames, 184320 mbs)
[libx264 @ 0x2ca61c0] using cpu capabilities: MMX2 SSE2Fast SSSE3 SSE4.2 AVX FMA3 AVX2 LZCNT BMI2
[libx264 @ 0x2ca61c0] profile High, level 5.2
[libx264 @ 0x2ca61c0] 264 - core 148 - H.264/MPEG-4 AVC codec - Copyleft 2003-2016 - http://www.videolan.org/x264.html - options: cabac=1 ref=16 deblock=1:0:0 analyse=0x3:0x133 me=tesa subme=11 psy=1 psy_rd=1.00:0.00 mixed_ref=1 me_range=24 chroma_me=1 trellis=2 8x8dct=1 cqm=0 deadzone=21,11 fast_pskip=0 chroma_qp_offset=-2 threads=6 lookahead_threads=1 sliced_threads=0 nr=0 decimate=1 interlaced=0 bluray_compat=0 constrained_intra=0 bframes=16 b_pyramid=2 b_adapt=2 b_bias=0 direct=3 weightb=1 open_gop=0 weightp=2 keyint=250 keyint_min=25 scenecut=40 intra_refresh=0 rc_lookahead=60 rc=abr mbtree=1 bitrate=11000 ratetol=1.0 qcomp=0.60 qpmin=0 qpmax=69 qpstep=4 ip_ratio=1.40 aq=1:1.00
Output #0, matroska, to 'Output/x264/encoded/crowd_run_2160p50placebo11000k.mkv':
  Metadata:
    encoder         : Lavf57.57.100
    Stream #0:0: Video: h264 (libx264) (H264 / 0x34363248), yuv420p, 3840x2160 [SAR 1:1 DAR 16:9], q=-1--1, 11000 kb/s, 50 fps, 1k tbn, 50 tbc
    Metadata:
      encoder         : Lavc57.66.101 libx264
    Side data:
      cpb: bitrate max/min/avg: 0/0/11000000 buffer size: 0 vbv_delay: -1
Stream mapping:
  Stream #0:0 -> #0:0 (rawvideo (native) -> h264 (libx264))
Press [q] to stop, [?] for help
frame=   14 fps=0.0 q=0.0 size=       0kB time=00:00:00.00 bitrate=N/A speed=   0x    frame=   27 fps= 21 q=0.0 size=       0kB time=00:00:00.00 bitrate=N/A speed=   0x    frame=   35 fps= 19 q=0.0 size=       0kB time=00:00:00.00 bitrate=N/A speed=   0x    frame=   42 fps= 18 q=0.0 size=       0kB time=00:00:00.00 bitrate=N/A speed=   0x    frame=   49 fps= 17 q=0.0 size=       0kB time=00:00:00.00 bitrate=N/A speed=   0x    frame=   56 fps= 16 q=0.0 size=       0kB time=00:00:00.00 bitrate=N/A speed=   0x    frame=   63 fps= 16 q=0.0 size=       0kB time=00:00:00.00 bitrate=N/A speed=   0x    frame=   70 fps= 15 q=0.0 size=       0kB time=00:00:00.00 bitrate=N/A speed=   0x    frame=   77 fps= 15 q=0.0 size=       0kB time=00:00:00.00 bitrate=N/A speed=   0x    frame=   84 fps=3.2 q=0.0 size=       0kB time=00:00:00.00 bitrate=N/A speed=   0x    frame=   89 fps=3.0 q=41.0 size=       1kB time=-00:00:00.01 bitrate=N/A speed=N/A    frame=   90 fps=2.6 q=36.0 size=       1kB time=00:00:00.00 bitrate=5888.0kbits/s speed=2.87e-05x    frame=   91 fps=2.5 q=35.0 size=       1kB time=00:00:00.02 bitrate= 280.4kbits/s speed=0.000586x    frame=   92 fps=2.5 q=38.0 size=       1kB time=00:00:00.04 bitrate= 143.6kbits/s speed=0.00112x    frame=   95 fps=2.2 q=44.0 size=       1kB time=00:00:00.10 bitrate=  58.3kbits/s speed=0.00238x    frame=   96 fps=2.2 q=43.0 size=       1kB time=00:00:00.12 bitrate=  48.7kbits/s speed=0.00274x    frame=   97 fps=2.1 q=46.0 size=       1kB time=00:00:00.14 bitrate=  41.8kbits/s speed=0.0031x    frame=  100 fps=2.1 q=49.0 size=       1kB time=00:00:00.20 bitrate=  29.3kbits/s speed=0.00423x    frame=  101 fps=2.0 q=49.0 size=       1kB time=00:00:00.22 bitrate=  26.6kbits/s speed=0.00438x    frame=  102 fps=2.0 q=49.0 size=       1kB time=00:00:00.24 bitrate=  24.4kbits/s speed=0.00463x    frame=  104 fps=2.0 q=49.0 size=       1kB time=00:00:00.28 bitrate=  21.0kbits/s speed=0.00535x    frame=  105 fps=1.8 q=49.0 size=       1kB time=00:00:00.30 bitrate=  19.6kbits/s speed=0.00524x    frame=  106 fps=1.8 q=49.0 size=       1kB time=00:00:00.32 bitrate=  18.3kbits/s speed=0.00546x    frame=  107 fps=1.8 q=49.0 size=       1kB time=00:00:00.34 bitrate=  17.3kbits/s speed=0.00572x    frame=  111 fps=1.6 q=48.0 size=       1kB time=00:00:00.42 bitrate=  14.0kbits/s speed=0.0061x    frame=  112 fps=1.6 q=48.0 size=       1kB time=00:00:00.44 bitrate=  13.4kbits/s speed=0.00628x    frame=  113 fps=1.6 q=48.0 size=       1kB time=00:00:00.46 bitrate=  12.8kbits/s speed=0.00648x    frame=  115 fps=1.5 q=48.0 size=       1kB time=00:00:00.50 bitrate=  11.8kbits/s speed=0.00669x    frame=  116 fps=1.5 q=48.0 size=       1kB time=00:00:00.52 bitrate=  11.3kbits/s speed=0.00682x    frame=  117 fps=1.5 q=48.0 size=       1kB time=00:00:00.54 bitrate=  10.9kbits/s speed=0.007x    frame=  118 fps=1.5 q=48.0 size=       1kB time=00:00:00.56 bitrate=  10.5kbits/s speed=0.00713x    frame=  119 fps=1.4 q=48.0 size=       1kB time=00:00:00.58 bitrate=  10.1kbits/s speed=0.00674x    frame=  120 fps=1.4 q=48.0 size=       1kB time=00:00:00.60 bitrate=   9.8kbits/s speed=0.00685x    frame=  121 fps=1.4 q=48.0 size=       1kB time=00:00:00.62 bitrate=   9.5kbits/s speed=0.00696x    frame=  123 fps=1.3 q=48.0 size=       1kB time=00:00:00.66 bitrate=   8.9kbits/s speed=0.00706x    frame=  124 fps=1.3 q=48.0 size=       1kB time=00:00:00.68 bitrate=   8.6kbits/s speed=0.00717x    frame=  125 fps=1.3 q=48.0 size=       1kB time=00:00:00.70 bitrate=   8.4kbits/s speed=0.0073x    frame=  127 fps=1.2 q=47.0 size=       1kB time=00:00:00.74 bitrate=   7.9kbits/s speed=0.00693x    frame=  128 fps=1.2 q=47.0 size=       1kB time=00:00:00.76 bitrate=   7.7kbits/s speed=0.00704x    frame=  129 fps=1.2 q=47.0 size=       1kB time=00:00:00.78 bitrate=   7.5kbits/s speed=0.00712x    frame=  132 fps=1.2 q=47.0 size=       1kB time=00:00:00.84 bitrate=   7.0kbits/s speed=0.00742x    frame=  133 fps=1.1 q=47.0 size=       1kB time=00:00:00.86 bitrate=   6.8kbits/s speed=0.00728x    frame=  134 fps=1.1 q=47.0 size=       1kB time=00:00:00.88 bitrate=   6.7kbits/s speed=0.00736x    frame=  137 fps=1.1 q=47.0 size=       1kB time=00:00:00.94 bitrate=   6.3kbits/s speed=0.00729x    frame=  138 fps=1.1 q=47.0 size=       1kB time=00:00:00.96 bitrate=   6.1kbits/s speed=0.00734x    frame=  139 fps=1.1 q=47.0 size=       1kB time=00:00:00.98 bitrate=   6.0kbits/s speed=0.00742x    frame=  142 fps=1.0 q=47.0 size=       1kB time=00:00:01.04 bitrate=   5.7kbits/s speed=0.00744x    frame=  143 fps=1.0 q=47.0 size=       1kB time=00:00:01.06 bitrate=   5.5kbits/s speed=0.0075x    frame=  144 fps=1.0 q=47.0 size=       1kB time=00:00:01.08 bitrate=   5.4kbits/s speed=0.00755x    frame=  147 fps=1.0 q=47.0 size=       1kB time=00:00:01.14 bitrate=   5.2kbits/s speed=0.00752x    frame=  148 fps=1.0 q=47.0 size=       1kB time=00:00:01.16 bitrate=   5.1kbits/s speed=0.0076x    frame=  149 fps=1.0 q=47.0 size=       1kB time=00:00:01.18 bitrate=   5.0kbits/s speed=0.00769x    frame=  151 fps=0.9 q=46.0 size=       1kB time=00:00:01.22 bitrate=   4.8kbits/s speed=0.00758x    frame=  152 fps=0.9 q=47.0 size=       1kB time=00:00:01.24 bitrate=   4.7kbits/s speed=0.00762x    frame=  153 fps=0.9 q=46.0 size=       1kB time=00:00:01.26 bitrate=   4.7kbits/s speed=0.00768x    frame=  156 fps=0.9 q=46.0 size=       1kB time=00:00:01.32 bitrate=   4.5kbits/s speed=0.00768x    frame=  157 fps=0.9 q=46.0 size=       1kB time=00:00:01.34 bitrate=   4.4kbits/s speed=0.00774x    frame=  158 fps=0.9 q=46.0 size=       1kB time=00:00:01.36 bitrate=   4.3kbits/s speed=0.00778x    frame=  160 fps=0.9 q=46.0 size=       1kB time=00:00:01.40 bitrate=   4.2kbits/s speed=0.00768x    frame=  161 fps=0.9 q=46.0 size=       1kB time=00:00:01.42 bitrate=   4.1kbits/s speed=0.00771x    frame=  162 fps=0.9 q=46.0 size=       1kB time=00:00:01.44 bitrate=   4.1kbits/s speed=0.00775x    frame=  165 fps=0.8 q=46.0 size=       1kB time=00:00:01.50 bitrate=   3.9kbits/s speed=0.00768x    frame=  166 fps=0.8 q=46.0 size=       1kB time=00:00:01.52 bitrate=   3.9kbits/s speed=0.00774x    frame=  167 fps=0.8 q=46.0 size=       1kB time=00:00:01.54 bitrate=   3.8kbits/s speed=0.0078x    frame=  169 fps=0.8 q=46.0 size=       1kB time=00:00:01.58 bitrate=   3.7kbits/s speed=0.00772x    frame=  170 fps=0.8 q=46.0 size=       1kB time=00:00:01.60 bitrate=   3.7kbits/s speed=0.00777x    frame=  171 fps=0.8 q=46.0 size=       1kB time=00:00:01.62 bitrate=   3.6kbits/s speed=0.00781x    frame=  174 fps=0.8 q=46.0 size=       1kB time=00:00:01.68 bitrate=   3.5kbits/s speed=0.00772x    frame=  175 fps=0.8 q=46.0 size=       1kB time=00:00:01.70 bitrate=   3.5kbits/s speed=0.00776x    frame=  176 fps=0.8 q=46.0 size=       1kB time=00:00:01.72 bitrate=   3.4kbits/s speed=0.0078x    frame=  179 fps=0.8 q=46.0 size=       1kB time=00:00:01.78 bitrate=   3.3kbits/s speed=0.0078x    frame=  180 fps=0.8 q=46.0 size=       1kB time=00:00:01.80 bitrate=   3.3kbits/s speed=0.00785x    frame=  181 fps=0.8 q=46.0 size=       1kB time=00:00:01.82 bitrate=   3.2kbits/s speed=0.0079x    frame=  183 fps=0.8 q=46.0 size=       1kB time=00:00:01.86 bitrate=   3.2kbits/s speed=0.00776x    frame=  184 fps=0.8 q=46.0 size=       1kB time=00:00:01.88 bitrate=   3.1kbits/s speed=0.00781x    frame=  185 fps=0.8 q=46.0 size=       1kB time=00:00:01.90 bitrate=   3.1kbits/s speed=0.00786x    frame=  187 fps=0.7 q=46.0 size=       1kB time=00:00:01.94 bitrate=   3.0kbits/s speed=0.00776x    frame=  188 fps=0.7 q=46.0 size=       1kB time=00:00:01.96 bitrate=   3.0kbits/s speed=0.0078x    frame=  189 fps=0.7 q=46.0 size=       1kB time=00:00:01.98 bitrate=   3.0kbits/s speed=0.00785x    frame=  193 fps=0.7 q=45.0 size=       1kB time=00:00:02.06 bitrate=   2.9kbits/s speed=0.00774x    frame=  194 fps=0.7 q=46.0 size=       1kB time=00:00:02.08 bitrate=   2.8kbits/s speed=0.00778x    frame=  195 fps=0.7 q=45.0 size=       1kB time=00:00:02.10 bitrate=   2.8kbits/s speed=0.00782x    frame=  197 fps=0.7 q=45.0 size=       1kB time=00:00:02.14 bitrate=   2.8kbits/s speed=0.00795x    frame=  198 fps=0.7 q=45.0 size=       1kB time=00:00:02.16 bitrate=   2.7kbits/s speed=0.0079x    frame=  199 fps=0.7 q=45.0 size=       1kB time=00:00:02.18 bitrate=   2.7kbits/s speed=0.00782x    frame=  200 fps=0.7 q=45.0 size=       1kB time=00:00:02.20 bitrate=   2.7kbits/s speed=0.00785x    frame=  204 fps=0.7 q=45.0 size=       1kB time=00:00:02.28 bitrate=   2.6kbits/s speed=0.00784x    frame=  205 fps=0.7 q=45.0 size=       1kB time=00:00:02.30 bitrate=   2.6kbits/s speed=0.00787x    frame=  206 fps=0.7 q=45.0 size=       1kB time=00:00:02.32 bitrate=   2.5kbits/s speed=0.00791x    frame=  208 fps=0.7 q=45.0 size=       1kB time=00:00:02.36 bitrate=   2.5kbits/s speed=0.00783x    frame=  209 fps=0.7 q=45.0 size=       1kB time=00:00:02.38 bitrate=   2.5kbits/s speed=0.00787x    frame=  210 fps=0.7 q=45.0 size=       1kB time=00:00:02.40 bitrate=   2.5kbits/s speed=0.00791x    frame=  214 fps=0.7 q=45.0 size=       1kB time=00:00:02.48 bitrate=   2.4kbits/s speed=0.00781x    frame=  215 fps=0.7 q=45.0 size=       1kB time=00:00:02.50 bitrate=   2.4kbits/s speed=0.00785x    frame=  216 fps=0.7 q=45.0 size=       1kB time=00:00:02.52 bitrate=   2.3kbits/s speed=0.00787x    frame=  219 fps=0.7 q=45.0 size=       1kB time=00:00:02.58 bitrate=   2.3kbits/s speed=0.00796x    frame=  220 fps=0.7 q=45.0 size=       1kB time=00:00:02.60 bitrate=   2.3kbits/s speed=0.00785x    frame=  221 fps=0.7 q=45.0 size=       1kB time=00:00:02.62 bitrate=   2.2kbits/s speed=0.00788x    frame=  225 fps=0.7 q=45.0 size=       1kB time=00:00:02.70 bitrate=   2.2kbits/s speed=0.00787x    frame=  226 fps=0.7 q=45.0 size=       1kB time=00:00:02.72 bitrate=   2.2kbits/s speed=0.0079x    frame=  227 fps=0.7 q=45.0 size=       1kB time=00:00:02.74 bitrate=   2.1kbits/s speed=0.00793x    frame=  229 fps=0.6 q=45.0 size=       1kB time=00:00:02.78 bitrate=   2.1kbits/s speed=0.00784x    frame=  230 fps=0.6 q=45.0 size=       1kB time=00:00:02.80 bitrate=   2.1kbits/s speed=0.00786x    frame=  231 fps=0.6 q=45.0 size=       1kB time=00:00:02.82 bitrate=   2.1kbits/s speed=0.00789x    frame=  234 fps=0.6 q=45.0 size=       1kB time=00:00:02.88 bitrate=   2.0kbits/s speed=0.00785x    frame=  235 fps=0.6 q=45.0 size=       1kB time=00:00:02.90 bitrate=   2.0kbits/s speed=0.00788x    frame=  236 fps=0.6 q=45.0 size=       1kB time=00:00:02.92 bitrate=   2.0kbits/s speed=0.00791x    frame=  238 fps=0.6 q=45.0 size=       1kB time=00:00:02.96 bitrate=   2.0kbits/s speed=0.00783x    frame=  239 fps=0.6 q=45.0 size=       1kB time=00:00:02.98 bitrate=   2.0kbits/s speed=0.00785x    frame=  240 fps=0.6 q=45.0 size=       1kB time=00:00:03.00 bitrate=   2.0kbits/s speed=0.00787x    frame=  244 fps=0.6 q=45.0 size=       1kB time=00:00:03.08 bitrate=   1.9kbits/s speed=0.00777x    frame=  245 fps=0.6 q=45.0 size=       1kB time=00:00:03.10 bitrate=   1.9kbits/s speed=0.0078x    frame=  246 fps=0.6 q=45.0 size=       1kB time=00:00:03.12 bitrate=   1.9kbits/s speed=0.00782x    frame=  250 fps=0.6 q=45.0 size=       1kB time=00:00:03.20 bitrate=   1.8kbits/s speed=0.00775x    frame=  251 fps=0.6 q=45.0 size=       1kB time=00:00:03.22 bitrate=   1.8kbits/s speed=0.00777x    frame=  252 fps=0.6 q=45.0 size=       1kB time=00:00:03.24 bitrate=   1.8kbits/s speed=0.0078x    frame=  255 fps=0.6 q=45.0 size=       1kB time=00:00:03.30 bitrate=   1.8kbits/s speed=0.00785x    frame=  256 fps=0.6 q=45.0 size=       1kB time=00:00:03.32 bitrate=   1.8kbits/s speed=0.00776x    frame=  257 fps=0.6 q=45.0 size=       1kB time=00:00:03.34 bitrate=   1.8kbits/s speed=0.00779x    frame=  260 fps=0.6 q=45.0 size=       1kB time=00:00:03.40 bitrate=   1.7kbits/s speed=0.00792x    frame=  261 fps=0.6 q=45.0 size=       1kB time=00:00:03.42 bitrate=   1.7kbits/s speed=0.00778x    frame=  262 fps=0.6 q=45.0 size=       1kB time=00:00:03.44 bitrate=   1.7kbits/s speed=0.0078x    frame=  263 fps=0.6 q=45.0 size=       1kB time=00:00:03.46 bitrate=   1.7kbits/s speed=0.00782x    frame=  266 fps=0.6 q=45.0 size=       1kB time=00:00:03.52 bitrate=   1.7kbits/s speed=0.00777x    frame=  267 fps=0.6 q=45.0 size=       1kB time=00:00:03.54 bitrate=   1.7kbits/s speed=0.0078x    frame=  268 fps=0.6 q=45.0 size=       1kB time=00:00:03.56 bitrate=   1.7kbits/s speed=0.00781x    frame=  270 fps=0.6 q=45.0 size=       1kB time=00:00:03.60 bitrate=   1.6kbits/s speed=0.00789x    frame=  271 fps=0.6 q=45.0 size=    5126kB time=00:00:03.62 bitrate=11596.2kbits/s speed=0.00779x    frame=  272 fps=0.6 q=45.0 size=    5126kB time=00:00:03.64 bitrate=11532.5kbits/s speed=0.0078x    frame=  273 fps=0.6 q=45.0 size=    5126kB time=00:00:03.66 bitrate=11469.5kbits/s speed=0.00782x    frame=  275 fps=0.6 q=45.0 size=    5126kB time=00:00:03.70 bitrate=11345.6kbits/s speed=0.00789x    frame=  276 fps=0.6 q=45.0 size=    5126kB time=00:00:03.72 bitrate=11284.6kbits/s speed=0.00779x    frame=  277 fps=0.6 q=45.0 size=    5126kB time=00:00:03.74 bitrate=11224.3kbits/s speed=0.0078x    frame=  278 fps=0.6 q=45.0 size=    5126kB time=00:00:03.76 bitrate=11164.6kbits/s speed=0.00782x    frame=  280 fps=0.6 q=45.0 size=    5126kB time=00:00:03.80 bitrate=11047.1kbits/s speed=0.00777x    frame=  281 fps=0.6 q=45.0 size=    5126kB time=00:00:03.82 bitrate=10989.3kbits/s speed=0.00779x    frame=  282 fps=0.6 q=45.0 size=    5126kB time=00:00:03.84 bitrate=10932.0kbits/s speed=0.0078x    frame=  285 fps=0.6 q=45.0 size=    5126kB time=00:00:03.90 bitrate=10763.9kbits/s speed=0.00775x    frame=  286 fps=0.6 q=45.0 size=    5126kB time=00:00:03.92 bitrate=10709.0kbits/s speed=0.00776x    frame=  287 fps=0.6 q=45.0 size=    5126kB time=00:00:03.94 bitrate=10654.6kbits/s speed=0.00777x    frame=  290 fps=0.6 q=45.0 size=    5126kB time=00:00:04.00 bitrate=10494.9kbits/s speed=0.0078x    frame=  291 fps=0.6 q=45.0 size=    5126kB time=00:00:04.02 bitrate=10442.7kbits/s speed=0.00779x    frame=  292 fps=0.6 q=45.0 size=    5126kB time=00:00:04.04 bitrate=10391.0kbits/s speed=0.00781x    frame=  293 fps=0.6 q=45.0 size=    5126kB time=00:00:04.06 bitrate=10339.8kbits/s speed=0.00784x    frame=  294 fps=0.6 q=45.0 size=    5126kB time=00:00:04.08 bitrate=10289.1kbits/s speed=0.00772x    frame=  295 fps=0.6 q=45.0 size=    5126kB time=00:00:04.10 bitrate=10239.0kbits/s speed=0.00774x    frame=  296 fps=0.6 q=45.0 size=    5126kB time=00:00:04.12 bitrate=10189.3kbits/s speed=0.00775x    frame=  299 fps=0.6 q=45.0 size=    5126kB time=00:00:04.18 bitrate=10043.0kbits/s speed=0.00775x    frame=  300 fps=0.6 q=45.0 size=    5126kB time=00:00:04.20 bitrate=9995.2kbits/s speed=0.00775x    frame=  301 fps=0.6 q=45.0 size=    5126kB time=00:00:04.22 bitrate=9947.9kbits/s speed=0.00776x    frame=  303 fps=0.6 q=45.0 size=    5126kB time=00:00:04.26 bitrate=9854.5kbits/s speed=0.00782x    frame=  304 fps=0.5 q=45.0 size=    5126kB time=00:00:04.28 bitrate=9808.4kbits/s speed=0.00773x    frame=  305 fps=0.5 q=45.0 size=    5126kB time=00:00:04.30 bitrate=9762.8kbits/s speed=0.00775x    frame=  306 fps=0.6 q=45.0 size=    5126kB time=00:00:04.32 bitrate=9717.6kbits/s speed=0.00777x    frame=  308 fps=0.5 q=45.0 size=    5126kB time=00:00:04.36 bitrate=9628.5kbits/s speed=0.00771x    frame=  309 fps=0.5 q=45.0 size=    5126kB time=00:00:04.38 bitrate=9584.6kbits/s speed=0.00773x    frame=  310 fps=0.5 q=45.0 size=    5126kB time=00:00:04.40 bitrate=9541.0kbits/s speed=0.00775x    frame=  312 fps=0.5 q=45.0 size=    5126kB time=00:00:04.44 bitrate=9455.1kbits/s speed=0.00781x    frame=  313 fps=0.5 q=45.0 size=    5126kB time=00:00:04.46 bitrate=9412.7kbits/s speed=0.00771x    frame=  314 fps=0.5 q=45.0 size=    5126kB time=00:00:04.48 bitrate=9370.7kbits/s speed=0.00773x    frame=  315 fps=0.5 q=45.0 size=    5126kB time=00:00:04.50 bitrate=9329.0kbits/s speed=0.00774x    frame=  318 fps=0.5 q=45.0 size=    5126kB time=00:00:04.56 bitrate=9206.3kbits/s speed=0.0077x    frame=  319 fps=0.5 q=45.0 size=    5126kB time=00:00:04.58 bitrate=9166.1kbits/s speed=0.00772x    frame=  320 fps=0.5 q=45.0 size=    5126kB time=00:00:04.60 bitrate=9126.3kbits/s speed=0.00773x    frame=  323 fps=0.5 q=44.0 size=    5126kB time=00:00:04.66 bitrate=9008.8kbits/s speed=0.00768x    frame=  324 fps=0.5 q=44.0 size=    5126kB time=00:00:04.68 bitrate=8970.3kbits/s speed=0.0077x    frame=  325 fps=0.5 q=44.0 size=    5126kB time=00:00:04.70 bitrate=8932.1kbits/s speed=0.00772x    frame=  328 fps=0.5 q=44.0 size=    5126kB time=00:00:04.76 bitrate=8819.6kbits/s speed=0.00769x    frame=  329 fps=0.5 q=44.0 size=    5126kB time=00:00:04.78 bitrate=8782.7kbits/s speed=0.0077x    frame=  330 fps=0.5 q=44.0 size=    5126kB time=00:00:04.80 bitrate=8746.1kbits/s speed=0.00772x    frame=  332 fps=0.5 q=44.0 size=    5126kB time=00:00:04.84 bitrate=8673.8kbits/s speed=0.00778x    frame=  333 fps=0.5 q=42.0 size=    5126kB time=00:00:04.86 bitrate=8638.1kbits/s speed=0.00768x    frame=  334 fps=0.5 q=45.0 size=    5126kB time=00:00:04.88 bitrate=8602.7kbits/s speed=0.00769x    frame=  335 fps=0.5 q=45.0 size=    5126kB time=00:00:04.90 bitrate=8567.6kbits/s speed=0.00771x    frame=  338 fps=0.5 q=45.0 size=    6820kB time=00:00:04.96 bitrate=11261.3kbits/s speed=0.0078x    frame=  340 fps=0.5 q=45.0 size=    6820kB time=00:00:05.00 bitrate=11171.2kbits/s speed=0.00784x    frame=  341 fps=0.5 q=45.0 size=    6820kB time=00:00:05.02 bitrate=11126.7kbits/s speed=0.00786x    frame=  343 fps=0.5 q=45.0 size=    6820kB time=00:00:05.06 bitrate=11038.8kbits/s speed=0.00791x    frame=  344 fps=0.5 q=45.0 size=    6820kB time=00:00:05.08 bitrate=10995.4kbits/s speed=0.0079x    frame=  345 fps=0.5 q=45.0 size=    6820kB time=00:00:05.10 bitrate=10952.2kbits/s speed=0.00792x    frame=  347 fps=0.5 q=45.0 size=    6820kB time=00:00:05.14 bitrate=10867.0kbits/s speed=0.00797x    frame=  349 fps=0.5 q=45.0 size=    6820kB time=00:00:05.18 bitrate=10783.1kbits/s speed=0.00797x    frame=  350 fps=0.5 q=45.0 size=    6820kB time=00:00:05.20 bitrate=10741.7kbits/s speed=0.00799x    frame=  351 fps=0.5 q=45.0 size=    6820kB time=00:00:05.22 bitrate=10700.5kbits/s speed=0.00801x    frame=  354 fps=0.5 q=45.0 size=    6820kB time=00:00:05.28 bitrate=10578.9kbits/s speed=0.00804x    frame=  355 fps=0.5 q=45.0 size=    6820kB time=00:00:05.30 bitrate=10539.0kbits/s speed=0.00806x    frame=  356 fps=0.5 q=45.0 size=    6820kB time=00:00:05.32 bitrate=10499.4kbits/s speed=0.00808x    frame=  357 fps=0.5 q=45.0 size=    6820kB time=00:00:05.34 bitrate=10460.1kbits/s speed=0.00811x    frame=  358 fps=0.5 q=45.0 size=    6820kB time=00:00:05.36 bitrate=10421.1kbits/s speed=0.00806x    frame=  359 fps=0.5 q=45.0 size=    6820kB time=00:00:05.38 bitrate=10382.3kbits/s speed=0.00807x    frame=  360 fps=0.5 q=45.0 size=    6820kB time=00:00:05.40 bitrate=10343.9kbits/s speed=0.00809x    frame=  363 fps=0.5 q=45.0 size=    6820kB time=00:00:05.46 bitrate=10230.3kbits/s speed=0.00808x    frame=  364 fps=0.5 q=45.0 size=    6820kB time=00:00:05.48 bitrate=10192.9kbits/s speed=0.00809x    frame=  365 fps=0.5 q=45.0 size=    6820kB time=00:00:05.50 bitrate=10155.9kbits/s speed=0.0081x    frame=  368 fps=0.5 q=45.0 size=    6820kB time=00:00:05.56 bitrate=10046.3kbits/s speed=0.00808x    frame=  369 fps=0.5 q=45.0 size=    6820kB time=00:00:05.58 bitrate=10010.3kbits/s speed=0.00809x    frame=  370 fps=0.5 q=45.0 size=    6820kB time=00:00:05.60 bitrate=9974.5kbits/s speed=0.0081x    frame=  372 fps=0.5 q=45.0 size=    6820kB time=00:00:05.64 bitrate=9903.8kbits/s speed=0.00815x    frame=  373 fps=0.5 q=45.0 size=    6820kB time=00:00:05.66 bitrate=9868.8kbits/s speed=0.00806x    frame=  374 fps=0.5 q=45.0 size=    6820kB time=00:00:05.68 bitrate=9834.1kbits/s speed=0.00807x    frame=  375 fps=0.5 q=45.0 size=    6820kB time=00:00:05.70 bitrate=9799.6kbits/s speed=0.00808x    frame=  378 fps=0.5 q=45.0 size=    6820kB time=00:00:05.76 bitrate=9697.5kbits/s speed=0.00809x    frame=  379 fps=0.5 q=45.0 size=    6820kB time=00:00:05.78 bitrate=9664.0kbits/s speed=0.00809x    frame=  380 fps=0.5 q=45.0 size=    6820kB time=00:00:05.80 bitrate=9630.7kbits/s speed=0.0081x    frame=  382 fps=0.5 q=45.0 size=    6820kB time=00:00:05.84 bitrate=9564.7kbits/s speed=0.00803x    frame=  383 fps=0.5 q=45.0 size=    6820kB time=00:00:05.86 bitrate=9532.1kbits/s speed=0.00804x    frame=  384 fps=0.5 q=45.0 size=    6820kB time=00:00:05.88 bitrate=9499.6kbits/s speed=0.00805x    frame=  387 fps=0.5 q=45.0 size=    6820kB time=00:00:05.94 bitrate=9403.7kbits/s speed=0.00808x    frame=  388 fps=0.5 q=45.0 size=    6820kB time=00:00:05.96 bitrate=9372.2kbits/s speed=0.00807x    frame=  389 fps=0.5 q=45.0 size=    6820kB time=00:00:05.98 bitrate=9340.8kbits/s speed=0.00808x    frame=  391 fps=0.5 q=45.0 size=    6820kB time=00:00:06.02 bitrate=9278.8kbits/s speed=0.00801x    frame=  392 fps=0.5 q=45.0 size=    6820kB time=00:00:06.04 bitrate=9248.0kbits/s speed=0.00802x    frame=  393 fps=0.5 q=45.0 size=    6820kB time=00:00:06.06 bitrate=9217.5kbits/s speed=0.00804x    frame=  396 fps=0.5 q=45.0 size=    6820kB time=00:00:06.12 bitrate=9127.2kbits/s speed=0.00805x    frame=  397 fps=0.5 q=45.0 size=    6820kB time=00:00:06.14 bitrate=9097.4kbits/s speed=0.00803x    frame=  398 fps=0.5 q=45.0 size=    6820kB time=00:00:06.16 bitrate=9067.9kbits/s speed=0.00804x    frame=  401 fps=0.5 q=45.0 size=    6820kB time=00:00:06.22 bitrate=8980.5kbits/s speed=0.00811x    frame=  402 fps=0.5 q=45.0 size=    6820kB time=00:00:06.24 bitrate=8951.7kbits/s speed=0.008x    frame=  403 fps=0.5 q=45.0 size=    6820kB time=00:00:06.26 bitrate=8923.1kbits/s speed=0.00801x    frame=  404 fps=0.5 q=45.0 size=    6820kB time=00:00:06.28 bitrate=8894.7kbits/s speed=0.00802x    frame=  407 fps=0.5 q=45.0 size=    6820kB time=00:00:06.34 bitrate=8810.5kbits/s speed=0.00804x    frame=  408 fps=0.5 q=45.0 size=    6820kB time=00:00:06.36 bitrate=8782.8kbits/s speed=0.008x    frame=  409 fps=0.5 q=45.0 size=    6820kB time=00:00:06.38 bitrate=8755.3kbits/s speed=0.00802x    frame=  412 fps=0.5 q=45.0 size=    6820kB time=00:00:06.44 bitrate=8673.7kbits/s speed=0.00799x    frame=  413 fps=0.5 q=45.0 size=    6820kB time=00:00:06.46 bitrate=8646.9kbits/s speed=0.008x    frame=  414 fps=0.5 q=45.0 size=    6820kB time=00:00:06.48 bitrate=8620.2kbits/s speed=0.00801x    frame=  417 fps=0.5 q=45.0 size=    6820kB time=00:00:06.54 bitrate=8541.1kbits/s speed=0.00802x    frame=  418 fps=0.5 q=45.0 size=    6820kB time=00:00:06.56 bitrate=8515.1kbits/s speed=0.00801x    frame=  419 fps=0.5 q=45.0 size=    6820kB time=00:00:06.58 bitrate=8489.2kbits/s speed=0.00802x    frame=  421 fps=0.5 q=45.0 size=    6820kB time=00:00:06.62 bitrate=8437.9kbits/s speed=0.00797x    frame=  422 fps=0.5 q=45.0 size=    6820kB time=00:00:06.64 bitrate=8412.5kbits/s speed=0.00798x    frame=  423 fps=0.5 q=45.0 size=    6820kB time=00:00:06.66 bitrate=8387.2kbits/s speed=0.00799x    frame=  426 fps=0.5 q=45.0 size=    6820kB time=00:00:06.72 bitrate=8312.4kbits/s speed=0.008x    frame=  427 fps=0.5 q=45.0 size=    6820kB time=00:00:06.74 bitrate=8287.7kbits/s speed=0.00798x    frame=  428 fps=0.5 q=45.0 size=    6820kB time=00:00:06.76 bitrate=8263.2kbits/s speed=0.00799x    frame=  430 fps=0.5 q=45.0 size=    6820kB time=00:00:06.80 bitrate=8214.6kbits/s speed=0.00795x    frame=  431 fps=0.5 q=45.0 size=    6820kB time=00:00:06.82 bitrate=8190.5kbits/s speed=0.00797x    frame=  432 fps=0.5 q=45.0 size=    6820kB time=00:00:06.84 bitrate=8166.6kbits/s speed=0.00798x    frame=  436 fps=0.5 q=45.0 size=    6820kB time=00:00:06.92 bitrate=8072.2kbits/s speed=0.00793x    frame=  437 fps=0.5 q=45.0 size=    6820kB time=00:00:06.94 bitrate=8048.9kbits/s speed=0.00794x    frame=  438 fps=0.5 q=45.0 size=    6820kB time=00:00:06.96 bitrate=8025.8kbits/s speed=0.00795x    frame=  440 fps=0.5 q=45.0 size=    6820kB time=00:00:07.00 bitrate=7979.9kbits/s speed=0.00796x    frame=  441 fps=0.5 q=45.0 size=    6820kB time=00:00:07.02 bitrate=7957.2kbits/s speed=0.00797x    frame=  442 fps=0.5 q=45.0 size=    6820kB time=00:00:07.04 bitrate=7934.6kbits/s speed=0.00798x    frame=  443 fps=0.5 q=45.0 size=    6820kB time=00:00:07.06 bitrate=7912.1kbits/s speed=0.00796x    frame=  444 fps=0.5 q=45.0 size=    6820kB time=00:00:07.08 bitrate=7889.8kbits/s speed=0.00798x    frame=  445 fps=0.5 q=45.0 size=    6820kB time=00:00:07.10 bitrate=7867.5kbits/s speed=0.00793x    frame=  446 fps=0.5 q=45.0 size=    6820kB time=00:00:07.12 bitrate=7845.4kbits/s speed=0.00794x    frame=  447 fps=0.5 q=45.0 size=    6820kB time=00:00:07.14 bitrate=7823.5kbits/s speed=0.00795x    frame=  449 fps=0.5 q=45.0 size=    6820kB time=00:00:07.18 bitrate=7779.9kbits/s speed=0.00792x    frame=  450 fps=0.5 q=45.0 size=    6820kB time=00:00:07.20 bitrate=7758.3kbits/s speed=0.00794x    frame=  451 fps=0.5 q=45.0 size=    6820kB time=00:00:07.22 bitrate=7736.8kbits/s speed=0.00795x    frame=  455 fps=0.5 q=45.0 size=    6820kB time=00:00:07.30 bitrate=7652.0kbits/s speed=0.00791x    frame=  456 fps=0.5 q=45.0 size=    6820kB time=00:00:07.32 bitrate=7631.1kbits/s speed=0.00793x    frame=  457 fps=0.5 q=45.0 size=    6820kB time=00:00:07.34 bitrate=7610.3kbits/s speed=0.00794x    frame=  459 fps=0.5 q=45.0 size=    6820kB time=00:00:07.38 bitrate=7569.1kbits/s speed=0.00794x    frame=  460 fps=0.5 q=45.0 size=    6820kB time=00:00:07.40 bitrate=7548.6kbits/s speed=0.00795x    frame=  461 fps=0.5 q=45.0 size=    6820kB time=00:00:07.42 bitrate=7528.3kbits/s speed=0.00794x    frame=  462 fps=0.5 q=45.0 size=    6820kB time=00:00:07.44 bitrate=7508.1kbits/s speed=0.00795x    frame=  464 fps=0.5 q=45.0 size=    6820kB time=00:00:07.48 bitrate=7467.9kbits/s speed=0.00799x    frame=  465 fps=0.5 q=45.0 size=    6820kB time=00:00:07.50 bitrate=7448.0kbits/s speed=0.00791x    frame=  466 fps=0.5 q=45.0 size=    6820kB time=00:00:07.52 bitrate=7428.2kbits/s speed=0.00792x    frame=  467 fps=0.5 q=45.0 size=    6820kB time=00:00:07.54 bitrate=7408.5kbits/s speed=0.00794x    frame=  469 fps=0.5 q=45.0 size=    6820kB time=00:00:07.58 bitrate=7369.4kbits/s speed=0.00794x    frame=  470 fps=0.5 q=45.0 size=    6820kB time=00:00:07.60 bitrate=7350.0kbits/s speed=0.00795x    frame=  471 fps=0.5 q=44.0 size=    6820kB time=00:00:07.62 bitrate=7330.7kbits/s speed=0.00796x    frame=  472 fps=0.5 q=44.0 size=    6820kB time=00:00:07.64 bitrate=7311.5kbits/s speed=0.00797x    frame=  473 fps=0.5 q=44.0 size=    6820kB time=00:00:07.66 bitrate=7292.4kbits/s speed=0.00791x    frame=  474 fps=0.5 q=44.0 size=    6820kB time=00:00:07.68 bitrate=7273.5kbits/s speed=0.00792x    frame=  475 fps=0.5 q=44.0 size=    6820kB time=00:00:07.70 bitrate=7254.6kbits/s speed=0.00793x    frame=  477 fps=0.5 q=44.0 size=    6820kB time=00:00:07.74 bitrate=7217.1kbits/s speed=0.00794x    frame=  478 fps=0.5 q=44.0 size=    6820kB time=00:00:07.76 bitrate=7198.5kbits/s speed=0.00795x    frame=  479 fps=0.5 q=44.0 size=    6820kB time=00:00:07.78 bitrate=7180.0kbits/s speed=0.00797x    frame=  480 fps=0.5 q=44.0 size=    6820kB time=00:00:07.80 bitrate=7161.6kbits/s speed=0.0079x    frame=  481 fps=0.5 q=44.0 size=    6820kB time=00:00:07.82 bitrate=7143.3kbits/s speed=0.00791x    frame=  482 fps=0.5 q=44.0 size=    6820kB time=00:00:07.84 bitrate=7125.0kbits/s speed=0.00793x    frame=  483 fps=0.5 q=44.0 size=    6820kB time=00:00:07.86 bitrate=7106.9kbits/s speed=0.00793x    frame=  484 fps=0.5 q=44.0 size=    6820kB time=00:00:07.88 bitrate=7088.9kbits/s speed=0.00793x    frame=  485 fps=0.5 q=44.0 size=    6820kB time=00:00:07.90 bitrate=7070.9kbits/s speed=0.00794x    frame=  486 fps=0.5 q=44.0 size=    6820kB time=00:00:07.92 bitrate=7053.1kbits/s speed=0.00795x    frame=  487 fps=0.5 q=44.0 size=    6820kB time=00:00:07.94 bitrate=7035.3kbits/s speed=0.0079x    frame=  488 fps=0.5 q=44.0 size=    6820kB time=00:00:07.96 bitrate=7017.6kbits/s speed=0.00791x    frame=  489 fps=0.5 q=44.0 size=    6820kB time=00:00:07.98 bitrate=7000.1kbits/s speed=0.00792x    frame=  490 fps=0.5 q=44.0 size=    6820kB time=00:00:08.00 bitrate=6982.6kbits/s speed=0.00791x    frame=  491 fps=0.5 q=44.0 size=    6820kB time=00:00:08.02 bitrate=6965.1kbits/s speed=0.00792x    frame=  492 fps=0.5 q=44.0 size=    6820kB time=00:00:08.04 bitrate=6947.8kbits/s speed=0.00793x    frame=  493 fps=0.5 q=44.0 size=    6820kB time=00:00:08.06 bitrate=6930.6kbits/s speed=0.00795x    frame=  494 fps=0.5 q=44.0 size=    6820kB time=00:00:08.08 bitrate=6913.4kbits/s speed=0.00788x    frame=  495 fps=0.5 q=44.0 size=    6820kB time=00:00:08.10 bitrate=6896.4kbits/s speed=0.00789x    frame=  496 fps=0.5 q=44.0 size=    6820kB time=00:00:08.12 bitrate=6879.4kbits/s speed=0.0079x    frame=  498 fps=0.5 q=44.0 size=    6820kB time=00:00:08.16 bitrate=6845.7kbits/s speed=0.00791x    frame=  499 fps=0.5 q=44.0 size=    6820kB time=00:00:08.18 bitrate=6828.9kbits/s speed=0.00792x    frame=  500 fps=0.5 q=44.0 size=    6820kB time=00:00:08.20 bitrate=6812.3kbits/s speed=0.00792x    frame=  500 fps=0.5 q=44.0 size=    6820kB time=00:00:08.20 bitrate=6812.3kbits/s speed=0.00791x    frame=  500 fps=0.4 q=-1.0 Lsize=   13337kB time=00:00:09.94 bitrate=10990.7kbits/s speed=0.0079x    
video:13333kB audio:0kB subtitle:0kB other streams:0kB global headers:0kB muxing overhead: 0.033817%
bench: utime=4802.060s
bench: maxrss=5398204kB
[libx264 @ 0x2ca61c0] frame I:2     Avg QP:35.60  size:403326
[libx264 @ 0x2ca61c0] frame P:108   Avg QP:45.52  size: 56766
[libx264 @ 0x2ca61c0] frame B:390   Avg QP:47.21  size: 17217
[libx264 @ 0x2ca61c0] consecutive B-frames:  0.6%  0.4%  3.6% 32.8% 41.0% 21.6%  0.0%  0.0%  0.0%  0.0%  0.0%  0.0%  0.0%  0.0%  0.0%  0.0%  0.0%
[libx264 @ 0x2ca61c0] mb I  I16..4: 17.9% 72.7%  9.4%
[libx264 @ 0x2ca61c0] mb P  I16..4:  1.2%  2.5%  0.0%  P16..4: 34.8% 20.0%  4.6%  0.1%  0.0%    skip:36.7%
[libx264 @ 0x2ca61c0] mb B  I16..4:  0.0%  0.1%  0.0%  B16..8: 38.3%  5.8%  0.2%  direct: 0.2%  skip:55.3%  L0:45.8% L1:53.4% BI: 0.8%
[libx264 @ 0x2ca61c0] final ratefactor: 36.44
[libx264 @ 0x2ca61c0] 8x8 transform intra:69.6% inter:87.0%
[libx264 @ 0x2ca61c0] direct mvs  spatial:99.2% temporal:0.8%
[libx264 @ 0x2ca61c0] coded y,uvDC,uvAC intra: 38.7% 48.9% 17.8% inter: 1.6% 3.3% 0.1%
[libx264 @ 0x2ca61c0] i16 v,h,dc,p: 29% 23%  2% 46%
[libx264 @ 0x2ca61c0] i8 v,h,dc,ddl,ddr,vr,hd,vl,hu:  4%  2%  1% 13% 19% 17% 18% 14% 13%
[libx264 @ 0x2ca61c0] i4 v,h,dc,ddl,ddr,vr,hd,vl,hu:  5%  3%  5% 15% 17% 14% 15% 12% 15%
[libx264 @ 0x2ca61c0] i8c dc,h,v,p: 43% 20% 16% 21%
[libx264 @ 0x2ca61c0] Weighted P-Frames: Y:0.0% UV:0.0%
[libx264 @ 0x2ca61c0] ref P L0: 56.7%  7.2% 13.5%  4.1%  3.4%  3.2%  2.9%  1.3%  1.1%  1.0%  1.0%  1.0%  1.1%  1.1%  1.0%  0.5%
[libx264 @ 0x2ca61c0] ref B L0: 95.3%  2.2%  0.9%  0.3%  0.3%  0.2%  0.2%  0.1%  0.1%  0.1%  0.1%  0.1%  0.1%  0.1%  0.1%
[libx264 @ 0x2ca61c0] ref B L1: 99.1%  0.9%
[libx264 @ 0x2ca61c0] kb/s:10921.64
